# xmcd
#
# Track frame offsets:
#	150
#	17288
#	34032
#	48791
#	66669
#	80593
#	94424
#	111414
#	128446
#	147421
#	159035
#	171894
#	185210
#	201763
#	213345
#	231213
#	245676
#	263135
#	280111
#	301967
#	319387
#
# Disc length: 4561 seconds
#
# Revision: 0
# Processed by: cddbd v1.5.2PL0 Copyright (c) Steve Scherf et al.
# Submitted via: EasyCDDAExtractor 2010.6.0.0
#
DISCID=2e11cf15
DTITLE=Various Artist - Bayern 3-Matuschkes Lieblinge (Die etwas anderen Radi
DTITLE=o-Hits) CD1
DYEAR=1900
DGENRE=
TTITLE0=Adele  - Rolling In The Deep   
TTITLE1=Cee Lo Green  - Fuck You   
TTITLE2=Empire Of The Sun  - Walking On A Dream   
TTITLE3=Foster The People - Pumped Up Kicks  
TTITLE4=Everlast - Saving Grace  
TTITLE5=Eliza Doolittle  - Skinny Genes   
TTITLE6=The Big Pink - Dominos  
TTITLE7=Glasvegas - Geraldine  
TTITLE8=EELS - That Look You Give That Guy  
TTITLE9=Pete Yorn and Scarlett Johansson - Relator  
TTITLE10=Shantel - Bucovina Original  
TTITLE11=The XX - VCR  
TTITLE12=Clueso  - Gewinner
TTITLE13=Missincat - Back On My Feet  
TTITLE14=Robert Francis  - Junebug 
TTITLE15=Locnville - Sun In My Pocket  
TTITLE16=The Naked And Famous - Young Blood  
TTITLE17=Owl City  - Fireflies    
TTITLE18=Herr Tischbein - Sympathie  
TTITLE19=Chrystal Fighters - At Home  
TTITLE20=The Airborne Toxic Event - Sometime Around Midnight  
EXTD=
EXTT0=
EXTT1=
EXTT2=
EXTT3=
EXTT4=
EXTT5=
EXTT6=
EXTT7=
EXTT8=
EXTT9=
EXTT10=
EXTT11=
EXTT12=
EXTT13=
EXTT14=
EXTT15=
EXTT16=
EXTT17=
EXTT18=
EXTT19=
EXTT20=
PLAYORDER=
